# This file uses centimeters as units for non-parametric coordinates.

mtllib Hall_01.mtl
g default
v -1.114088 4.765012 4.357462
v 1.006043 4.765012 4.357462
v -1.114088 5.001446 4.357462
v 1.006043 5.001446 4.357462
v -1.114088 5.001446 -4.357462
v 1.006043 5.001446 -4.357462
v -1.114088 4.765012 -4.357462
v 1.006043 4.765012 -4.357462
vt 0.375000 0.000000
vt 0.625000 0.000000
vt 0.375000 0.250000
vt 0.625000 0.250000
vt 0.375000 0.500000
vt 0.625000 0.500000
vt 0.375000 0.750000
vt 0.625000 0.750000
vt 0.375000 1.000000
vt 0.625000 1.000000
vt 0.875000 0.000000
vt 0.875000 0.250000
vt 0.125000 0.000000
vt 0.125000 0.250000
vn 0.000000 0.000000 1.000000
vn 0.000000 0.000000 1.000000
vn 0.000000 0.000000 1.000000
vn 0.000000 0.000000 1.000000
vn 0.000000 1.000000 0.000000
vn 0.000000 1.000000 0.000000
vn 0.000000 1.000000 0.000000
vn 0.000000 1.000000 0.000000
vn 0.000000 0.000000 -1.000000
vn 0.000000 0.000000 -1.000000
vn 0.000000 0.000000 -1.000000
vn 0.000000 0.000000 -1.000000
vn 0.000000 -1.000000 0.000000
vn 0.000000 -1.000000 0.000000
vn 0.000000 -1.000000 0.000000
vn 0.000000 -1.000000 0.000000
vn 1.000000 0.000000 0.000000
vn 1.000000 0.000000 0.000000
vn 1.000000 0.000000 0.000000
vn 1.000000 0.000000 0.000000
vn -1.000000 0.000000 0.000000
vn -1.000000 0.000000 0.000000
vn -1.000000 0.000000 0.000000
vn -1.000000 0.000000 0.000000
s off
g pCube1
usemtl initialShadingGroup
f 1/1/1 2/2/2 4/4/3 3/3/4
f 3/3/5 4/4/6 6/6/7 5/5/8
f 5/5/9 6/6/10 8/8/11 7/7/12
f 7/7/13 8/8/14 2/10/15 1/9/16
f 2/2/17 8/11/18 6/12/19 4/4/20
f 7/13/21 1/1/22 3/3/23 5/14/24
g default
v 0.010024 0.006542 -4.120811
v 1.010024 0.006542 -4.120811
v -1.108155 4.766524 -4.120811
v 1.010024 5.006648 -4.120811
v -1.108155 4.766524 -4.356492
v 1.010024 5.006648 -4.356492
v 0.010024 0.006542 -4.356492
v 1.010024 0.006542 -4.356492
v 0.010024 4.004947 -4.120811
v 0.010024 4.004947 -4.356492
v 1.010024 4.004947 -4.356492
v 1.010024 4.004947 -4.120811
vt 0.375000 0.000000
vt 0.625000 0.000000
vt 0.375000 0.250000
vt 0.625000 0.250000
vt 0.375000 0.500000
vt 0.625000 0.500000
vt 0.375000 0.750000
vt 0.625000 0.750000
vt 0.375000 1.000000
vt 0.625000 1.000000
vt 0.875000 0.000000
vt 0.875000 0.250000
vt 0.125000 0.000000
vt 0.125000 0.250000
vt 0.375000 0.199916
vt 0.125000 0.199916
vt 0.375000 0.550084
vt 0.625000 0.550084
vt 0.875000 0.199916
vt 0.625000 0.199916
vn 0.000000 0.000000 1.000000
vn 0.000000 0.000000 1.000000
vn 0.000000 0.000000 1.000000
vn 0.000000 0.000000 1.000000
vn -0.112642 0.993636 0.000000
vn -0.112642 0.993636 0.000000
vn -0.112642 0.993636 0.000000
vn -0.112642 0.993636 0.000000
vn 0.000000 0.000000 -1.000000
vn 0.000000 0.000000 -1.000000
vn 0.000000 0.000000 -1.000000
vn 0.000000 0.000000 -1.000000
vn 0.000000 -1.000000 0.000000
vn 0.000000 -1.000000 0.000000
vn 0.000000 -1.000000 0.000000
vn 0.000000 -1.000000 0.000000
vn 1.000000 0.000000 0.000000
vn 1.000000 0.000000 0.000000
vn 1.000000 0.000000 0.000000
vn 1.000000 0.000000 0.000000
vn -1.000000 -0.000000 0.000000
vn -1.000000 -0.000000 0.000000
vn -0.973500 -0.228687 0.000000
vn -0.973500 -0.228687 0.000000
vn -0.562925 -0.826508 0.000000
vn -0.562925 -0.826508 0.000000
vn 0.000000 0.000000 -1.000000
vn 0.000000 0.000000 -1.000000
vn 1.000000 0.000000 0.000000
vn 1.000000 0.000000 0.000000
vn 0.000000 0.000000 1.000000
vn 0.000000 0.000000 1.000000
s 1
g pCube2
usemtl initialShadingGroup
f 9/15/25 10/16/26 20/34/27 17/29/28
s off
f 11/17/29 12/18/30 14/20/31 13/19/32
s 2
f 18/31/33 19/32/34 16/22/35 15/21/36
s off
f 15/21/37 16/22/38 10/24/39 9/23/40
s 3
f 10/16/41 16/25/42 19/33/43 20/34/44
s 4
f 15/27/45 9/15/46 17/29/47 18/30/48
f 18/30/48 17/29/47 11/17/49 13/28/50
s 2
f 13/19/51 14/20/52 19/32/34 18/31/33
s 3
f 20/34/44 19/33/43 14/26/53 12/18/54
s 1
f 17/29/28 20/34/27 12/18/55 11/17/56
g default
v 0.010024 0.006542 4.341901
v 1.010024 0.006542 4.341901
v -1.108155 4.766524 4.341901
v 1.010024 5.006648 4.341901
v -1.108155 4.766524 4.106219
v 1.010024 5.006648 4.106219
v 0.010024 0.006542 4.106219
v 1.010024 0.006542 4.106219
v 0.010024 4.004890 4.341901
v 0.010024 4.004890 4.106219
v 1.010024 4.004890 4.106219
v 1.010024 4.004890 4.341901
vt 0.375000 0.000000
vt 0.625000 0.000000
vt 0.375000 0.250000
vt 0.625000 0.250000
vt 0.375000 0.500000
vt 0.625000 0.500000
vt 0.375000 0.750000
vt 0.625000 0.750000
vt 0.375000 1.000000
vt 0.625000 1.000000
vt 0.875000 0.000000
vt 0.875000 0.250000
vt 0.125000 0.000000
vt 0.125000 0.250000
vt 0.375000 0.199913
vt 0.125000 0.199913
vt 0.375000 0.550087
vt 0.625000 0.550087
vt 0.875000 0.199913
vt 0.625000 0.199913
vn 0.000000 0.000000 1.000000
vn 0.000000 0.000000 1.000000
vn 0.000000 0.000000 1.000000
vn 0.000000 0.000000 1.000000
vn -0.112642 0.993636 0.000000
vn -0.112642 0.993636 0.000000
vn -0.112642 0.993636 0.000000
vn -0.112642 0.993636 0.000000
vn 0.000000 0.000000 -1.000000
vn 0.000000 0.000000 -1.000000
vn 0.000000 0.000000 -1.000000
vn 0.000000 0.000000 -1.000000
vn 0.000000 -1.000000 0.000000
vn 0.000000 -1.000000 0.000000
vn 0.000000 -1.000000 0.000000
vn 0.000000 -1.000000 0.000000
vn 1.000000 0.000000 0.000000
vn 1.000000 0.000000 0.000000
vn 1.000000 0.000000 0.000000
vn 1.000000 0.000000 0.000000
vn -1.000000 -0.000000 0.000000
vn -1.000000 -0.000000 0.000000
vn -0.973500 -0.228688 0.000000
vn -0.973500 -0.228688 0.000000
vn -0.562953 -0.826489 0.000000
vn -0.562953 -0.826489 0.000000
vn 0.000000 0.000000 -1.000000
vn 0.000000 0.000000 -1.000000
vn 1.000000 0.000000 0.000000
vn 1.000000 0.000000 0.000000
vn 0.000000 0.000000 1.000000
vn 0.000000 0.000000 1.000000
s 1
g pCube3
usemtl initialShadingGroup
f 21/35/57 22/36/58 32/54/59 29/49/60
s off
f 23/37/61 24/38/62 26/40/63 25/39/64
s 2
f 30/51/65 31/52/66 28/42/67 27/41/68
s off
f 27/41/69 28/42/70 22/44/71 21/43/72
s 3
f 22/36/73 28/45/74 31/53/75 32/54/76
s 4
f 27/47/77 21/35/78 29/49/79 30/50/80
f 30/50/80 29/49/79 23/37/81 25/48/82
s 2
f 25/39/83 26/40/84 31/52/66 30/51/65
s 3
f 32/54/76 31/53/75 26/46/85 24/38/86
s 1
f 29/49/60 32/54/59 24/38/87 23/37/88
